<?xml version="1.0" encoding="utf-8"?>
<!-- Generator: Adobe Illustrator 25.2.0, SVG Export Plug-In . SVG Version: 6.00 Build 0)  -->
<svg version="1.1" id="Layer_1" xmlns="http://www.w3.org/2000/svg" xmlns:xlink="http://www.w3.org/1999/xlink" x="0px" y="0px"
	 viewBox="0 0 3888 3684" style="enable-background:new 0 0 3888 3684;" xml:space="preserve">
<style type="text/css">
	.st0{fill-rule:evenodd;clip-rule:evenodd;fill:#154BC6;}
</style>
<path id="Crypto_Logo" class="st0" d="M2939.6,1198.9C2718.3,826.8,2314,599.3,1851.8,599.3C1152,599.3,606.4,1137.7,606.4,1842
	S1152,3138.9,1851.8,3138.9c462.2,0,866.6-270.8,1087.9-642.9h634.2c-262.1,694.4-940.2,1188-1722.1,1188C841,3684,0,2859.3,0,1842
	S841,0,1851.8,0c781.9,0,1460,504.4,1722.1,1198.9L2939.6,1198.9L2939.6,1198.9z M3888,1625.3l-639,455.1h-801.7
	c-93.4,240.9-327.1,411.7-600.8,411.7c-355.9,0-644.4-288.6-644.4-644.7s288.5-644.7,644.4-644.7c277.9,0,514.6,176,605.1,422.6
	L3888,1625.3L3888,1625.3z"/>
</svg>
